<svg width="251" height="50" viewBox="0 0 251 50" fill="none" xmlns="http://www.w3.org/2000/svg">
<path d="M24.4227 25.1091C26.059 25.6273 27.3408 26.5 28.2681 27.7273C29.1954 28.9273 29.659 30.4137 29.659 32.1864C29.659 34.6955 28.6772 36.6318 26.7136 37.9955C24.7772 39.3318 21.9409 40 18.2045 40H3.39545V11.3637H17.3863C20.8772 11.3637 23.5499 12.0319 25.4045 13.3682C27.2863 14.7046 28.2272 16.5182 28.2272 18.8091C28.2272 20.2 27.8863 21.4409 27.2045 22.5319C26.5499 23.6228 25.6227 24.4819 24.4227 25.1091ZM9.9818 16.3546V23.1046H16.5681C18.2045 23.1046 19.4454 22.8182 20.2909 22.2455C21.1363 21.6728 21.559 20.8273 21.559 19.7091C21.559 18.591 21.1363 17.7591 20.2909 17.2137C19.4454 16.641 18.2045 16.3546 16.5681 16.3546H9.9818ZM17.7136 35.0091C19.459 35.0091 20.7681 34.7227 21.6409 34.15C22.5409 33.5773 22.9909 32.6909 22.9909 31.4909C22.9909 29.1182 21.2318 27.9318 17.7136 27.9318H9.9818V35.0091H17.7136ZM43.1037 17.6637C46.5128 17.6637 49.131 18.4819 50.9582 20.1182C52.7855 21.7273 53.6991 24.1682 53.6991 27.4409V40H47.7264V37.2591C46.5264 39.3045 44.2901 40.3273 41.0173 40.3273C39.3264 40.3273 37.8537 40.0409 36.5992 39.4682C35.3719 38.8955 34.431 38.1045 33.7765 37.0955C33.1219 36.0864 32.7946 34.9409 32.7946 33.6591C32.7946 31.6137 33.5583 30.0046 35.0855 28.8318C36.6401 27.6591 39.0264 27.0728 42.2446 27.0728H47.3173C47.3173 25.6818 46.8946 24.6182 46.0492 23.8819C45.2037 23.1182 43.9355 22.7364 42.2446 22.7364C41.0719 22.7364 39.9128 22.9273 38.7674 23.3091C37.6492 23.6637 36.6946 24.1546 35.9037 24.7819L33.6128 20.3228C34.8128 19.4773 36.2446 18.8228 37.9083 18.3591C39.5992 17.8955 41.331 17.6637 43.1037 17.6637ZM42.6128 36.0318C43.7037 36.0318 44.6719 35.7864 45.5173 35.2955C46.3628 34.7773 46.9628 34.0273 47.3173 33.0455V30.7955H42.9401C40.3219 30.7955 39.0128 31.6546 39.0128 33.3727C39.0128 34.1909 39.3264 34.8455 39.9537 35.3364C40.6083 35.8 41.4946 36.0318 42.6128 36.0318ZM70.351 40.3273C68.0056 40.3273 65.8919 39.85 64.0101 38.8955C62.1556 37.9136 60.6965 36.5636 59.6329 34.8455C58.5965 33.1273 58.0783 31.1773 58.0783 28.9955C58.0783 26.8137 58.5965 24.8637 59.6329 23.1455C60.6965 21.4273 62.1556 20.091 64.0101 19.1364C65.8919 18.1546 68.0056 17.6637 70.351 17.6637C72.6692 17.6637 74.6874 18.1546 76.4055 19.1364C78.151 20.091 79.4192 21.4682 80.2101 23.2682L75.2601 25.9273C74.1146 23.9091 72.4646 22.9 70.3101 22.9C68.6465 22.9 67.2692 23.4455 66.1783 24.5364C65.0874 25.6273 64.5419 27.1137 64.5419 28.9955C64.5419 30.8773 65.0874 32.3637 66.1783 33.4546C67.2692 34.5455 68.6465 35.0909 70.3101 35.0909C72.4919 35.0909 74.1419 34.0818 75.2601 32.0637L80.2101 34.7636C79.4192 36.5091 78.151 37.8727 76.4055 38.8545C74.6874 39.8364 72.6692 40.3273 70.351 40.3273ZM93.1747 31.3682L90.1065 34.3955V40H83.7247V9.64552H90.1065V26.8273L99.4338 17.991H107.043L97.8793 27.3182L107.861 40H100.129L93.1747 31.3682Z" fill="white"/>
<path d="M137.41 40L137.369 22.8182L128.941 36.9727H125.955L117.569 23.1864V40H111.351V11.3637H116.832L127.55 29.1591L138.105 11.3637H143.546L143.628 40H137.41Z" fill="#4FDB27"/>
<path d="M187.914 17.6637C190.642 17.6637 192.837 18.4819 194.501 20.1182C196.192 21.7546 197.037 24.1819 197.037 27.4V40H190.655V28.3818C190.655 26.6364 190.274 25.3409 189.51 24.4955C188.746 23.6228 187.642 23.1864 186.196 23.1864C184.587 23.1864 183.305 23.6909 182.351 24.7C181.396 25.6818 180.919 27.1546 180.919 29.1182V40H174.537V17.991H180.633V20.5682C181.478 19.641 182.528 18.9319 183.783 18.441C185.037 17.9228 186.414 17.6637 187.914 17.6637ZM224.621 29.0773C224.621 29.1591 224.58 29.7318 224.498 30.7955H207.848C208.148 32.1591 208.857 33.2364 209.975 34.0273C211.093 34.8182 212.484 35.2136 214.148 35.2136C215.293 35.2136 216.303 35.05 217.175 34.7227C218.075 34.3682 218.907 33.8227 219.671 33.0864L223.066 36.7682C220.993 39.1409 217.966 40.3273 213.984 40.3273C211.503 40.3273 209.307 39.85 207.398 38.8955C205.489 37.9136 204.016 36.5636 202.98 34.8455C201.944 33.1273 201.425 31.1773 201.425 28.9955C201.425 26.8409 201.93 24.9046 202.939 23.1864C203.975 21.4409 205.38 20.091 207.153 19.1364C208.953 18.1546 210.957 17.6637 213.166 17.6637C215.321 17.6637 217.271 18.1273 219.016 19.0546C220.762 19.9819 222.125 21.3182 223.107 23.0637C224.116 24.7819 224.621 26.7864 224.621 29.0773ZM213.207 22.4909C211.762 22.4909 210.548 22.9 209.566 23.7182C208.584 24.5364 207.984 25.6546 207.766 27.0728H218.607C218.389 25.6818 217.789 24.5773 216.807 23.7591C215.825 22.9137 214.625 22.4909 213.207 22.4909ZM250.315 17.991L240.375 41.35C239.365 43.8864 238.111 45.6727 236.611 46.7091C235.138 47.7454 233.352 48.2636 231.252 48.2636C230.106 48.2636 228.975 48.0863 227.856 47.7318C226.738 47.3773 225.825 46.8863 225.115 46.2591L227.447 41.7182C227.938 42.1545 228.497 42.4954 229.125 42.7409C229.779 42.9864 230.42 43.1091 231.047 43.1091C231.92 43.1091 232.629 42.8909 233.175 42.4545C233.72 42.0455 234.211 41.35 234.647 40.3682L234.729 40.1636L225.197 17.991H231.784L237.961 32.9227L244.179 17.991H250.315Z" fill="#4FDB27"/>
<path d="M151.788 20.3486C154.011 17.0862 166.19 13.3889 171.023 24.6017C162.401 18.7827 158.071 20.7352 155.654 22.3785L159.714 24.6984L150 28.0332L147.728 18.3187L151.788 20.3486Z" fill="#4FDB27"/>
<path d="M166.962 37.2305C164.739 40.4929 152.56 44.1902 147.727 32.9774C156.349 38.7964 160.679 36.8439 163.096 35.2006L159.036 32.8808L168.75 29.5459L171.022 39.2604L166.962 37.2305Z" fill="#4FDB27"/>
</svg>
